<?xml version="1.0" standalone="no"?>
<!DOCTYPE svg PUBLIC "-//W3C//DTD SVG 20010904//EN"
 "http://www.w3.org/TR/2001/REC-SVG-20010904/DTD/svg10.dtd">
<svg version="1.0" xmlns="http://www.w3.org/2000/svg"
 width="512.000000pt" height="512.000000pt" viewBox="0 0 512.000000 512.000000"
 preserveAspectRatio="xMidYMid meet">
<metadata>
Created by potrace 1.11, written by Peter Selinger 2001-2013
</metadata>
<g transform="translate(0.000000,512.000000) scale(0.100000,-0.100000)"
fill="#000000" stroke="none">
<path d="M807 4753 c-150 -44 -270 -175 -293 -320 l-7 -43 1542 0 1541 0 0
-307 0 -308 190 190 191 191 0 129 c0 186 -30 273 -121 362 -51 50 -81 69
-162 99 l-57 21 -1388 0 c-1161 0 -1396 -2 -1436 -14z"/>
<path d="M645 4145 c-27 -7 -90 -25 -140 -40 -49 -15 -103 -30 -120 -35 -120
-34 -274 -81 -292 -89 -44 -20 -61 -85 -38 -142 3 -9 47 -39 98 -66 202 -111
224 -118 278 -86 15 9 33 29 39 43 17 42 -1 109 -36 128 -10 6 35 23 150 57
179 52 206 68 211 127 4 46 -20 87 -60 104 -19 8 -36 14 -37 13 -2 0 -25 -7
-53 -14z"/>
<path d="M4382 4099 c-34 -13 -1748 -1731 -1820 -1825 -71 -92 -82 -130 -43
-150 16 -8 31 -10 42 -3 10 5 32 9 50 9 57 0 71 -46 45 -145 -7 -27 -11 -56
-8 -63 8 -23 44 -30 92 -17 125 32 169 -9 140 -130 -7 -29 -10 -65 -6 -80 6
-25 9 -26 49 -20 168 27 182 21 172 -76 -5 -44 -3 -69 4 -73 63 -40 130 20
1102 993 476 476 869 877 874 889 19 62 7 77 -291 376 -158 158 -297 294 -310
302 -28 19 -63 24 -92 13z"/>
<path d="M600 3574 c-41 -12 -169 -50 -285 -84 -116 -33 -220 -68 -233 -76
-48 -31 -53 -112 -9 -151 38 -35 274 -153 306 -153 36 0 86 40 95 76 9 33 -10
90 -35 108 -18 12 -9 16 93 46 209 60 231 69 248 101 19 34 20 60 5 94 -25 62
-75 72 -185 39z"/>
<path d="M665 3033 c-11 -3 -49 -13 -84 -24 -34 -10 -73 -21 -85 -24 -11 -2
-75 -20 -141 -40 -66 -20 -151 -45 -188 -57 -91 -27 -119 -52 -123 -108 -2
-39 1 -47 30 -74 41 -38 276 -156 310 -156 14 0 41 14 60 30 31 28 34 35 32
77 -2 36 -9 51 -29 69 l-27 23 67 20 c38 11 108 32 158 46 49 14 100 32 113
41 56 37 50 127 -12 168 -25 16 -43 18 -81 9z"/>
<path d="M620 2464 c-25 -8 -52 -17 -60 -19 -16 -3 -244 -70 -380 -111 -126
-38 -164 -88 -125 -164 17 -33 40 -48 191 -124 61 -31 124 -56 139 -56 18 0
39 12 62 35 33 33 35 39 29 78 -4 26 -15 50 -31 64 -22 19 -23 22 -7 27 82 24
269 78 277 80 50 10 86 64 80 117 -9 71 -86 103 -175 73z"/>
<path d="M659 1915 c-3 -2 -16 -7 -30 -9 -13 -2 -24 -5 -24 -6 0 -1 -7 -3 -15
-5 -19 -5 -230 -66 -380 -111 -92 -27 -121 -41 -144 -66 -24 -26 -27 -37 -23
-72 4 -29 14 -48 36 -66 45 -38 273 -150 304 -150 15 0 40 12 59 29 28 25 33
35 32 76 0 38 -5 52 -26 70 l-25 22 31 11 c17 6 87 27 155 48 69 20 135 42
146 50 55 36 52 134 -5 167 -26 16 -81 23 -91 12z"/>
<path d="M3777 1643 l-187 -187 0 -356 0 -357 -1522 -1 c-838 0 -1531 -1
-1542 -1 -49 -2 21 -188 101 -268 48 -47 97 -75 178 -103 46 -15 154 -16 1445
-15 1247 1 1399 3 1436 17 71 28 105 49 155 95 66 62 107 135 124 224 6 27 7
1130 2 1135 -2 2 -87 -80 -190 -183z"/>
<path d="M2304 1672 c-15 -9 -204 -477 -204 -502 0 -43 33 -42 157 4 65 25
162 61 215 80 137 51 167 67 175 95 4 18 0 29 -18 43 -117 92 -139 113 -209
198 -77 93 -88 101 -116 82z"/>
<path d="M595 1340 c-91 -28 -171 -52 -325 -97 -47 -13 -95 -29 -108 -34 -13
-5 -31 -9 -40 -9 -24 0 -70 -45 -78 -75 -8 -32 1 -67 23 -93 25 -28 271 -153
302 -154 95 -1 146 110 79 172 -12 11 -20 22 -17 24 2 3 36 14 74 25 178 50
242 73 262 94 40 40 35 119 -9 146 -46 28 -71 29 -163 1z"/>
</g>
</svg>
